<svg width="3300" height="2200" viewBox="0 0 3300 2200" fill="none" xmlns="http://www.w3.org/2000/svg">
<g id="language-symbol">
<g clip-path="url(#clip0_1_2)">
<g id="Notes">
<path id="artboard" d="M3177 -38H-123V2162H3177V-38Z" fill="white"/>
<path id="Vector" d="M263 292H3036" stroke="black" stroke-width="0.5"/>
<text id="Weight/Scale Variations" fill="black" xml:space="preserve" style="white-space: pre" font-family="Inter" font-size="13" font-weight="bold" letter-spacing="0em"><tspan x="263" y="321.727">Weight/Scale Variations</tspan></text>
<text id="Ultralight" fill="black" xml:space="preserve" style="white-space: pre" font-family="Inter" font-size="13" letter-spacing="0em"><tspan x="531.211" y="321.727">Ultralight</tspan></text>
<text id="Thin" fill="black" xml:space="preserve" style="white-space: pre" font-family="Inter" font-size="13" letter-spacing="0em"><tspan x="842.922" y="321.727">Thin</tspan></text>
<text id="Light" fill="black" xml:space="preserve" style="white-space: pre" font-family="Inter" font-size="13" letter-spacing="0em"><tspan x="1137.63" y="321.727">Light</tspan></text>
<text id="Regular" fill="black" xml:space="preserve" style="white-space: pre" font-family="Inter" font-size="13" letter-spacing="0em"><tspan x="1426.34" y="321.727">Regular</tspan></text>
<text id="Medium" fill="black" xml:space="preserve" style="white-space: pre" font-family="Inter" font-size="13" letter-spacing="0em"><tspan x="1721.56" y="321.727">Medium</tspan></text>
<text id="Semibold" fill="black" xml:space="preserve" style="white-space: pre" font-family="Inter" font-size="13" letter-spacing="0em"><tspan x="2014.27" y="321.727">Semibold</tspan></text>
<text id="Bold" fill="black" xml:space="preserve" style="white-space: pre" font-family="Inter" font-size="13" letter-spacing="0em"><tspan x="2325.98" y="321.727">Bold</tspan></text>
<text id="Heavy" fill="black" xml:space="preserve" style="white-space: pre" font-family="Inter" font-size="13" letter-spacing="0em"><tspan x="2617.19" y="321.727">Heavy</tspan></text>
<text id="Black" fill="black" xml:space="preserve" style="white-space: pre" font-family="Inter" font-size="13" letter-spacing="0em"><tspan x="2916.4" y="321.727">Black</tspan></text>
<path id="Vector_2" d="M263 1903H3036" stroke="black" stroke-width="0.5"/>
<g id="Group">
<path id="Vector_3" d="M272.248 1933.83C273.329 1933.83 274.344 1933.62 275.295 1933.21C276.245 1932.8 277.084 1932.23 277.81 1931.51C278.535 1930.78 279.105 1929.94 279.519 1928.99C279.932 1928.04 280.139 1927.02 280.139 1925.95C280.139 1924.87 279.932 1923.86 279.519 1922.91C279.105 1921.96 278.534 1921.12 277.805 1920.39C277.075 1919.66 276.236 1919.09 275.285 1918.68C274.335 1918.27 273.319 1918.07 272.238 1918.07C271.164 1918.07 270.152 1918.27 269.201 1918.68C268.251 1919.09 267.414 1919.66 266.691 1920.39C265.969 1921.12 265.401 1921.96 264.987 1922.91C264.574 1923.86 264.367 1924.87 264.367 1925.95C264.367 1927.02 264.574 1928.04 264.987 1928.99C265.401 1929.94 265.97 1930.78 266.696 1931.51C267.422 1932.23 268.26 1932.8 269.211 1933.21C270.161 1933.62 271.174 1933.83 272.248 1933.83ZM272.248 1932.35C271.363 1932.35 270.534 1932.18 269.763 1931.85C268.991 1931.52 268.314 1931.07 267.731 1930.48C267.149 1929.89 266.693 1929.21 266.364 1928.44C266.035 1927.66 265.871 1926.83 265.871 1925.95C265.871 1925.06 266.034 1924.23 266.359 1923.46C266.685 1922.68 267.139 1922 267.722 1921.42C268.304 1920.83 268.981 1920.37 269.753 1920.05C270.524 1919.72 271.353 1919.55 272.238 1919.55C273.13 1919.55 273.962 1919.72 274.733 1920.05C275.505 1920.37 276.184 1920.83 276.769 1921.42C277.355 1922 277.814 1922.68 278.146 1923.46C278.478 1924.23 278.644 1925.06 278.644 1925.95C278.644 1926.83 278.48 1927.66 278.151 1928.44C277.823 1929.21 277.367 1929.89 276.784 1930.48C276.202 1931.07 275.523 1931.52 274.748 1931.85C273.973 1932.18 273.14 1932.35 272.248 1932.35ZM268.654 1925.95C268.654 1926.16 268.723 1926.34 268.859 1926.47C268.996 1926.61 269.178 1926.67 269.406 1926.67H271.516V1928.79C271.516 1929.01 271.581 1929.18 271.711 1929.32C271.841 1929.46 272.017 1929.53 272.238 1929.53C272.453 1929.53 272.631 1929.46 272.771 1929.32C272.91 1929.18 272.98 1929.01 272.98 1928.79V1926.67H275.09C275.311 1926.67 275.49 1926.61 275.627 1926.47C275.764 1926.34 275.832 1926.16 275.832 1925.95C275.832 1925.73 275.764 1925.55 275.627 1925.41C275.49 1925.28 275.311 1925.21 275.09 1925.21H272.98V1923.1C272.98 1922.88 272.91 1922.7 272.771 1922.56C272.631 1922.42 272.453 1922.35 272.238 1922.35C272.017 1922.35 271.841 1922.42 271.711 1922.56C271.581 1922.7 271.516 1922.88 271.516 1923.1V1925.21H269.406C269.178 1925.21 268.996 1925.28 268.859 1925.41C268.723 1925.55 268.654 1925.73 268.654 1925.95Z" fill="black"/>
</g>
<g id="Group_2">
<path id="Vector_4" d="M293.576 1935.91C294.937 1935.91 296.218 1935.65 297.419 1935.13C298.62 1934.61 299.679 1933.89 300.597 1932.97C301.515 1932.05 302.235 1930.99 302.756 1929.79C303.276 1928.59 303.537 1927.31 303.537 1925.95C303.537 1924.59 303.276 1923.31 302.756 1922.11C302.235 1920.91 301.515 1919.85 300.597 1918.93C299.679 1918.01 298.618 1917.29 297.414 1916.77C296.209 1916.25 294.927 1915.99 293.566 1915.99C292.205 1915.99 290.925 1916.25 289.723 1916.77C288.522 1917.29 287.464 1918.01 286.55 1918.93C285.635 1919.85 284.917 1920.91 284.396 1922.11C283.875 1923.31 283.615 1924.59 283.615 1925.95C283.615 1927.31 283.875 1928.59 284.396 1929.79C284.917 1930.99 285.636 1932.05 286.554 1932.97C287.472 1933.89 288.532 1934.61 289.733 1935.13C290.934 1935.65 292.215 1935.91 293.576 1935.91ZM293.576 1934.25C292.424 1934.25 291.346 1934.04 290.344 1933.61C289.341 1933.18 288.46 1932.58 287.702 1931.82C286.943 1931.06 286.351 1930.18 285.925 1929.18C285.498 1928.18 285.285 1927.1 285.285 1925.95C285.285 1924.8 285.498 1923.72 285.925 1922.72C286.351 1921.71 286.942 1920.83 287.697 1920.07C288.452 1919.31 289.331 1918.71 290.334 1918.29C291.336 1917.86 292.414 1917.65 293.566 1917.65C294.718 1917.65 295.796 1917.86 296.799 1918.29C297.801 1918.71 298.683 1919.31 299.445 1920.07C300.207 1920.83 300.802 1921.71 301.232 1922.72C301.662 1923.72 301.877 1924.8 301.877 1925.95C301.877 1927.1 301.664 1928.18 301.237 1929.18C300.811 1930.18 300.218 1931.06 299.46 1931.82C298.701 1932.58 297.819 1933.18 296.813 1933.61C295.807 1934.04 294.728 1934.25 293.576 1934.25ZM289.045 1925.95C289.045 1926.18 289.123 1926.38 289.279 1926.53C289.435 1926.68 289.637 1926.75 289.885 1926.75H292.756V1929.63C292.756 1929.88 292.831 1930.08 292.98 1930.23C293.13 1930.38 293.322 1930.46 293.556 1930.46C293.804 1930.46 294.004 1930.38 294.157 1930.23C294.31 1930.08 294.386 1929.88 294.386 1929.63V1926.75H297.267C297.515 1926.75 297.715 1926.68 297.868 1926.53C298.021 1926.38 298.097 1926.18 298.097 1925.95C298.097 1925.7 298.021 1925.5 297.868 1925.35C297.715 1925.2 297.515 1925.12 297.267 1925.12H294.386V1922.25C294.386 1921.99 294.31 1921.79 294.157 1921.64C294.004 1921.48 293.804 1921.41 293.556 1921.41C293.322 1921.41 293.13 1921.49 292.98 1921.64C292.831 1921.8 292.756 1922 292.756 1922.25V1925.12H289.885C289.631 1925.12 289.427 1925.2 289.274 1925.35C289.121 1925.5 289.045 1925.7 289.045 1925.95Z" fill="black"/>
</g>
<g id="Group_3">
<path id="Vector_5" d="M320.617 1938.66C322.01 1938.66 323.34 1938.45 324.606 1938.01C325.872 1937.58 327.036 1936.97 328.097 1936.19C329.158 1935.41 330.081 1934.49 330.866 1933.43C331.65 1932.37 332.259 1931.2 332.692 1929.93C333.125 1928.66 333.341 1927.34 333.341 1925.95C333.341 1924.56 333.125 1923.23 332.692 1921.96C332.259 1920.69 331.65 1919.53 330.866 1918.47C330.081 1917.41 329.158 1916.48 328.097 1915.7C327.036 1914.92 325.871 1914.31 324.601 1913.87C323.332 1913.44 322 1913.22 320.607 1913.22C319.214 1913.22 317.884 1913.44 316.618 1913.87C315.351 1914.31 314.189 1914.92 313.131 1915.7C312.073 1916.48 311.152 1917.41 310.368 1918.47C309.583 1919.53 308.976 1920.69 308.546 1921.96C308.117 1923.23 307.902 1924.56 307.902 1925.95C307.902 1927.34 308.118 1928.66 308.551 1929.93C308.984 1931.2 309.591 1932.37 310.373 1933.43C311.154 1934.49 312.075 1935.41 313.136 1936.19C314.197 1936.97 315.361 1937.58 316.627 1938.01C317.894 1938.45 319.223 1938.66 320.617 1938.66ZM320.617 1936.85C319.412 1936.85 318.265 1936.66 317.174 1936.3C316.084 1935.93 315.086 1935.41 314.181 1934.75C313.276 1934.08 312.49 1933.3 311.823 1932.39C311.155 1931.48 310.639 1930.48 310.275 1929.39C309.91 1928.3 309.728 1927.15 309.728 1925.95C309.728 1924.74 309.91 1923.59 310.275 1922.5C310.639 1921.41 311.154 1920.41 311.818 1919.5C312.482 1918.59 313.266 1917.8 314.171 1917.14C315.076 1916.48 316.074 1915.96 317.165 1915.6C318.255 1915.23 319.402 1915.05 320.607 1915.05C321.818 1915.05 322.969 1915.23 324.059 1915.6C325.15 1915.96 326.149 1916.48 327.057 1917.14C327.965 1917.8 328.751 1918.59 329.415 1919.5C330.08 1920.41 330.596 1921.41 330.963 1922.5C331.331 1923.59 331.515 1924.74 331.515 1925.95C331.522 1927.15 331.343 1928.3 330.978 1929.39C330.613 1930.48 330.098 1931.48 329.43 1932.39C328.763 1933.3 327.975 1934.08 327.067 1934.75C326.159 1935.41 325.159 1935.93 324.069 1936.3C322.978 1936.66 321.828 1936.85 320.617 1936.85ZM314.845 1925.95C314.845 1926.2 314.931 1926.41 315.104 1926.58C315.277 1926.75 315.496 1926.83 315.763 1926.83H319.708V1930.78C319.708 1931.05 319.791 1931.27 319.957 1931.44C320.123 1931.61 320.337 1931.7 320.597 1931.7C320.864 1931.7 321.084 1931.62 321.256 1931.45C321.429 1931.28 321.515 1931.06 321.515 1930.78V1926.83H325.47C325.737 1926.83 325.955 1926.75 326.124 1926.58C326.294 1926.41 326.378 1926.2 326.378 1925.95C326.378 1925.68 326.294 1925.45 326.124 1925.29C325.955 1925.12 325.737 1925.03 325.47 1925.03H321.515V1921.09C321.515 1920.81 321.429 1920.59 321.256 1920.42C321.084 1920.24 320.864 1920.16 320.597 1920.16C320.337 1920.16 320.123 1920.24 319.957 1920.42C319.791 1920.59 319.708 1920.81 319.708 1921.09V1925.03H315.763C315.49 1925.03 315.268 1925.12 315.099 1925.29C314.93 1925.45 314.845 1925.68 314.845 1925.95Z" fill="black"/>
</g>
<text id="Design Variations" fill="black" xml:space="preserve" style="white-space: pre" font-family="Inter" font-size="13" font-weight="bold" letter-spacing="0em"><tspan x="263" y="1952.73">Design Variations</tspan></text>
<text id="Symbols are supported in up to nine weights and three scales." fill="black" xml:space="preserve" style="white-space: pre" font-family="Inter" font-size="13" letter-spacing="0em"><tspan x="263" y="1970.73">Symbols are supported in up to nine weights and three scales.</tspan></text>
<text id="For optimal layout with text and other symbols, vertically align" fill="black" xml:space="preserve" style="white-space: pre" font-family="Inter" font-size="13" letter-spacing="0em"><tspan x="263" y="1988.73">For optimal layout with text and other symbols, vertically align</tspan></text>
<text id="symbols with the adjacent text." fill="black" xml:space="preserve" style="white-space: pre" font-family="Inter" font-size="13" letter-spacing="0em"><tspan x="263" y="2006.73">symbols with the adjacent text.</tspan></text>
<path id="Vector_6" d="M776 1919V1933" stroke="#00AEEF" stroke-width="0.5"/>
<g id="Group_4">
<path id="Vector_7" d="M779.311 1933.16C779.571 1933.16 779.773 1933.1 779.916 1932.99C780.059 1932.88 780.176 1932.69 780.268 1932.41L781.527 1928.97H787.289L788.549 1932.41C788.64 1932.69 788.757 1932.88 788.9 1932.99C789.044 1933.1 789.242 1933.16 789.496 1933.16C789.757 1933.16 789.963 1933.08 790.116 1932.94C790.269 1932.8 790.346 1932.6 790.346 1932.36C790.346 1932.21 790.31 1932.03 790.238 1931.83L785.658 1919.63C785.541 1919.33 785.382 1919.11 785.18 1918.96C784.978 1918.81 784.721 1918.73 784.408 1918.73C783.803 1918.73 783.393 1919.03 783.178 1919.62L778.598 1931.84C778.526 1932.04 778.49 1932.22 778.49 1932.37C778.49 1932.61 778.563 1932.81 778.71 1932.95C778.856 1933.09 779.057 1933.16 779.311 1933.16ZM782.006 1927.48L784.379 1920.91H784.428L786.801 1927.48H782.006Z" fill="black"/>
</g>
<path id="Vector_8" d="M793.197 1919V1933" stroke="#00AEEF" stroke-width="0.5"/>
<text id="Margins" fill="black" xml:space="preserve" style="white-space: pre" font-family="Inter" font-size="13" font-weight="bold" letter-spacing="0em"><tspan x="776" y="1952.73">Margins</tspan></text>
<text id="Leading and trailing margins on the left and right side of each symbol" fill="black" xml:space="preserve" style="white-space: pre" font-family="Inter" font-size="13" letter-spacing="0em"><tspan x="776" y="1970.73">Leading and trailing margins on the left and right side of each symbol</tspan></text>
<text id="can be adjusted by modifying the x-location of the margin guidelines." fill="black" xml:space="preserve" style="white-space: pre" font-family="Inter" font-size="13" letter-spacing="0em"><tspan x="776" y="1988.73">can be adjusted by modifying the x-location of the margin guidelines.</tspan></text>
<text id="Modifications are automatically applied proportionally to all" fill="black" xml:space="preserve" style="white-space: pre" font-family="Inter" font-size="13" letter-spacing="0em"><tspan x="776" y="2006.73">Modifications are automatically applied proportionally to all</tspan></text>
<text id="scales and weights." fill="black" xml:space="preserve" style="white-space: pre" font-family="Inter" font-size="13" letter-spacing="0em"><tspan x="776" y="2024.73">scales and weights.</tspan></text>
<g id="Group_5">
<path id="Vector_9" d="M1291.84 1934.87L1293.54 1936.57C1293.97 1937.01 1294.42 1937.21 1294.9 1937.18C1295.38 1937.15 1295.85 1936.87 1296.31 1936.36L1307.01 1924.57L1306.04 1923.6L1295.43 1935.28C1295.25 1935.48 1295.07 1935.59 1294.89 1935.62C1294.71 1935.64 1294.51 1935.54 1294.27 1935.3L1293.1 1934.14C1292.87 1933.91 1292.76 1933.7 1292.79 1933.52C1292.82 1933.34 1292.94 1933.16 1293.14 1932.98L1304.62 1922.18L1303.64 1921.21L1292.05 1932.1C1291.55 1932.56 1291.29 1933.02 1291.25 1933.5C1291.22 1933.97 1291.41 1934.43 1291.84 1934.87ZM1298.26 1916.67C1298.05 1916.87 1297.93 1917.1 1297.91 1917.37C1297.88 1917.63 1297.93 1917.85 1298.04 1918.05C1298.16 1918.23 1298.33 1918.37 1298.56 1918.46C1298.78 1918.55 1299.06 1918.56 1299.38 1918.48C1300.11 1918.31 1300.85 1918.24 1301.6 1918.27C1302.35 1918.3 1303.08 1918.55 1303.79 1919.02L1303.21 1920.47C1303.04 1920.89 1302.99 1921.25 1303.07 1921.56C1303.14 1921.87 1303.31 1922.16 1303.58 1922.43L1305.87 1924.75C1306.12 1925 1306.35 1925.14 1306.58 1925.18C1306.81 1925.22 1307.06 1925.21 1307.34 1925.16L1308.4 1924.96L1309.07 1925.64L1309.03 1926.19C1309.01 1926.44 1309.04 1926.67 1309.12 1926.88C1309.2 1927.09 1309.36 1927.31 1309.61 1927.55L1310.37 1928.29C1310.61 1928.53 1310.87 1928.66 1311.15 1928.67C1311.44 1928.68 1311.7 1928.57 1311.93 1928.33L1314.84 1925.41C1315.07 1925.18 1315.19 1924.92 1315.18 1924.65C1315.18 1924.37 1315.05 1924.11 1314.81 1923.87L1314.04 1923.11C1313.8 1922.87 1313.58 1922.7 1313.38 1922.61C1313.17 1922.53 1312.95 1922.49 1312.71 1922.51L1312.13 1922.56L1311.49 1921.93L1311.73 1920.8C1311.8 1920.52 1311.79 1920.26 1311.7 1920.02C1311.6 1919.77 1311.41 1919.5 1311.12 1919.21L1308.92 1917.02C1308.09 1916.2 1307.2 1915.58 1306.26 1915.16C1305.32 1914.75 1304.37 1914.53 1303.42 1914.52C1302.47 1914.5 1301.55 1914.68 1300.66 1915.04C1299.78 1915.41 1298.98 1915.95 1298.26 1916.67ZM1299.75 1917.04C1300.36 1916.6 1301.01 1916.28 1301.7 1916.1C1302.39 1915.91 1303.1 1915.85 1303.8 1915.92C1304.51 1915.98 1305.2 1916.17 1305.87 1916.49C1306.54 1916.8 1307.15 1917.24 1307.7 1917.79L1310.13 1920.21C1310.25 1920.32 1310.32 1920.44 1310.35 1920.55C1310.38 1920.66 1310.38 1920.8 1310.34 1920.97L1310.02 1922.45L1311.52 1923.94L1312.51 1923.88C1312.63 1923.87 1312.72 1923.88 1312.79 1923.9C1312.85 1923.93 1312.94 1923.99 1313.03 1924.08L1313.61 1924.66L1311.17 1927.1L1310.59 1926.53C1310.49 1926.43 1310.43 1926.35 1310.41 1926.28C1310.38 1926.22 1310.37 1926.12 1310.38 1925.99L1310.45 1925.01L1308.95 1923.53L1307.43 1923.78C1307.26 1923.81 1307.14 1923.82 1307.04 1923.8C1306.95 1923.77 1306.84 1923.7 1306.71 1923.59L1304.71 1921.58C1304.58 1921.47 1304.51 1921.35 1304.49 1921.25C1304.48 1921.14 1304.51 1920.99 1304.59 1920.81L1305.46 1918.72C1304.68 1917.99 1303.8 1917.49 1302.83 1917.21C1301.85 1916.93 1300.86 1916.94 1299.84 1917.24C1299.76 1917.26 1299.71 1917.24 1299.69 1917.19C1299.67 1917.15 1299.69 1917.1 1299.75 1917.04Z" fill="black"/>
</g>
<text id="Exporting" fill="black" xml:space="preserve" style="white-space: pre" font-family="Inter" font-size="13" font-weight="bold" letter-spacing="0em"><tspan x="1289" y="1952.73">Exporting</tspan></text>
<text id="Symbols should be outlined when exporting to ensure the" fill="black" xml:space="preserve" style="white-space: pre" font-family="Inter" font-size="13" letter-spacing="0em"><tspan x="1289" y="1970.73">Symbols should be outlined when exporting to ensure the</tspan></text>
<text id="design is preserved when submitting to Xcode." fill="black" xml:space="preserve" style="white-space: pre" font-family="Inter" font-size="13" letter-spacing="0em"><tspan x="1289" y="1988.73">design is preserved when submitting to Xcode.</tspan></text>
<text id="template-version" fill="black" xml:space="preserve" style="white-space: pre" font-family="Inter" font-size="13" letter-spacing="0em"><tspan x="2946" y="1932.73">Template v.3.0</tspan></text>
<text id="Requires Xcode 13 or greater" fill="black" xml:space="preserve" style="white-space: pre" font-family="Inter" font-size="13" letter-spacing="0em"><tspan x="2857" y="1950.73">Requires Xcode 13 or greater</tspan></text>
<text id="descriptive-name" fill="black" xml:space="preserve" style="white-space: pre" font-family="Inter" font-size="13" letter-spacing="0em"><tspan x="2810" y="1968.73">Generated from square.and.arrow.up</tspan></text>
<text id="Typeset at 100 points" fill="black" xml:space="preserve" style="white-space: pre" font-family="Inter" font-size="13" letter-spacing="0em"><tspan x="2903" y="1986.73">Typeset at 100 points</tspan></text>
<text id="Small" fill="black" xml:space="preserve" style="white-space: pre" font-family="Inter" font-size="13" letter-spacing="0em"><tspan x="263" y="725.727">Small</tspan></text>
<text id="Medium_2" fill="black" xml:space="preserve" style="white-space: pre" font-family="Inter" font-size="13" letter-spacing="0em"><tspan x="263" y="1155.73">Medium</tspan></text>
<text id="Large" fill="black" xml:space="preserve" style="white-space: pre" font-family="Inter" font-size="13" letter-spacing="0em"><tspan x="263" y="1585.73">Large</tspan></text>
</g>
<g id="Guides">
<g id="H-reference">
<path id="Vector_10" d="M339.993 696H342.638L368.328 628.867H369.03V625.541H367.123L339.993 696ZM350.688 671.52H385.982L385.231 669.271H351.438L350.688 671.52ZM394.119 696H396.764L369.638 625.541H368.433V628.867L394.119 696Z" fill="#27AAE1"/>
</g>
<path id="Baseline-S" d="M263 696H3036" stroke="#27AAE1" stroke-width="0.5"/>
<path id="Capline-S" d="M263 625.541H3036" stroke="#27AAE1" stroke-width="0.5"/>
<g id="H-reference_2">
<path id="Vector_11" d="M339.993 1126H342.638L368.328 1058.87H369.03V1055.54H367.123L339.993 1126ZM350.688 1101.52H385.982L385.231 1099.27H351.438L350.688 1101.52ZM394.119 1126H396.764L369.638 1055.54H368.433V1058.87L394.119 1126Z" fill="#27AAE1"/>
</g>
<path id="Baseline-M" d="M263 1126H3036" stroke="#27AAE1" stroke-width="0.5"/>
<path id="Capline-M" d="M263 1055.54H3036" stroke="#27AAE1" stroke-width="0.5"/>
<g id="H-reference_3">
<path id="Vector_12" d="M339.993 1556H342.638L368.328 1488.87H369.03V1485.54H367.123L339.993 1556ZM350.688 1531.52H385.982L385.231 1529.27H351.438L350.688 1531.52ZM394.119 1556H396.764L369.638 1485.54H368.433V1488.87L394.119 1556Z" fill="#27AAE1"/>
</g>
<path id="Baseline-L" d="M263 1556H3036" stroke="#27AAE1" stroke-width="0.5"/>
<path id="Capline-L" d="M263 1485.54H3036" stroke="#27AAE1" stroke-width="0.5"/>
<path id="left-margin-Regular-M" d="M1394.06 1030.79V1150.12" stroke="#00AEEF" stroke-width="0.5"/>
<path id="right-margin-Regular-M" d="M1505.63 1030.79V1150.12" stroke="#00AEEF" stroke-width="0.5"/>
</g>
<g id="Symbols">
<g id="Black-S">
<path id="Vector 1" d="M2926.24 644.29H2893.55H2888C2878.61 644.29 2871 651.901 2871 661.29V681.161C2871 687.387 2876.05 692.434 2882.27 692.434H2888.01C2891.07 692.434 2893.55 694.91 2893.55 697.966V697.966C2893.55 702.986 2899.7 705.411 2903.12 701.74L2909.14 695.295C2910.84 693.47 2913.23 692.434 2915.72 692.434H2939.54V692.434C2940.29 692.434 2940.89 691.828 2940.89 691.081V678.016M2951.81 617H2977.78C2987.17 617 2994.78 624.611 2994.78 634V657.042C2994.78 662.085 2990.69 666.173 2985.65 666.173H2980.52C2978.31 666.173 2976.52 667.966 2976.52 670.178V670.178C2976.52 673.993 2971.68 675.647 2969.35 672.631L2966.09 668.429C2964.99 667.006 2963.29 666.173 2961.49 666.173H2951.81C2942.42 666.173 2934.81 658.562 2934.81 649.173V634C2934.81 624.611 2942.42 617 2951.81 617Z" stroke="black" stroke-width="11"/>
<g id="Group 1">
<path id="Vector 2" d="M2953.07 631.05H2977.38" stroke="black" stroke-width="11"/>
<path id="Vector 4" d="M2973.76 630.755L2969.62 639.582L2967.88 642.329C2966.8 644.025 2965.57 645.62 2964.21 647.095V647.095C2962.14 649.333 2959.77 651.277 2957.17 652.87L2954.36 654.588" stroke="black" stroke-width="11"/>
<path id="Vector 5" d="M2960.57 636.64V636.64C2963.57 644.217 2969.26 650.418 2976.56 654.048L2977.64 654.588" stroke="black" stroke-width="11"/>
<path id="Vector 3" d="M2964.71 631.05V625.753" stroke="black" stroke-width="11"/>
</g>
<g id="A">
<path id="Vector 6" d="M2889.94 679.818L2901.38 659.075C2902.55 656.958 2905.61 657.021 2906.69 659.184L2916.99 679.818" stroke="black" stroke-width="11"/>
<path id="Vector 7" d="M2895.8 670.55H2911.36" stroke="black" stroke-width="11"/>
</g>
</g>
<g id="Heavy-S">
<path id="Vector 1_2" d="M2630.24 644.29H2597.55H2592C2582.61 644.29 2575 651.901 2575 661.29V681.161C2575 687.387 2580.05 692.434 2586.27 692.434H2592.01C2595.07 692.434 2597.55 694.91 2597.55 697.966V697.966C2597.55 702.986 2603.7 705.411 2607.12 701.74L2613.14 695.295C2614.84 693.47 2617.23 692.434 2619.72 692.434H2643.54V692.434C2644.29 692.434 2644.89 691.828 2644.89 691.081V678.016M2655.81 617H2681.78C2691.17 617 2698.78 624.611 2698.78 634V657.042C2698.78 662.085 2694.69 666.173 2689.65 666.173H2684.52C2682.31 666.173 2680.52 667.966 2680.52 670.178V670.178C2680.52 673.993 2675.68 675.647 2673.35 672.631L2670.09 668.429C2668.99 667.006 2667.29 666.173 2665.49 666.173H2655.81C2646.42 666.173 2638.81 658.562 2638.81 649.173V634C2638.81 624.611 2646.42 617 2655.81 617Z" stroke="black" stroke-width="10"/>
<g id="Group 1_2">
<path id="Vector 2_2" d="M2657.07 631.05H2681.38" stroke="black" stroke-width="10"/>
<path id="Vector 4_2" d="M2677.76 630.755L2673.62 639.582L2671.88 642.329C2670.8 644.025 2669.57 645.62 2668.21 647.095V647.095C2666.14 649.333 2663.77 651.277 2661.17 652.87L2658.36 654.588" stroke="black" stroke-width="10"/>
<path id="Vector 5_2" d="M2664.57 636.64V636.64C2667.57 644.217 2673.26 650.418 2680.56 654.048L2681.64 654.588" stroke="black" stroke-width="10"/>
<path id="Vector 3_2" d="M2668.71 631.05V625.753" stroke="black" stroke-width="10"/>
</g>
<g id="A_2">
<path id="Vector 6_2" d="M2593.94 679.818L2605.38 659.075C2606.55 656.958 2609.61 657.021 2610.69 659.184L2620.99 679.818" stroke="black" stroke-width="10"/>
<path id="Vector 7_2" d="M2599.8 670.55H2615.36" stroke="black" stroke-width="10"/>
</g>
</g>
<g id="Bold-S">
<path id="Vector 1_3" d="M2333.24 644.29H2300.55H2295C2285.61 644.29 2278 651.901 2278 661.29V681.161C2278 687.387 2283.05 692.434 2289.27 692.434H2295.01C2298.07 692.434 2300.55 694.91 2300.55 697.966V697.966C2300.55 702.986 2306.7 705.411 2310.12 701.74L2316.14 695.295C2317.84 693.47 2320.23 692.434 2322.72 692.434H2346.54V692.434C2347.29 692.434 2347.89 691.828 2347.89 691.081V678.016M2358.81 617H2384.78C2394.17 617 2401.78 624.611 2401.78 634V657.042C2401.78 662.085 2397.69 666.173 2392.65 666.173H2387.52C2385.31 666.173 2383.52 667.966 2383.52 670.178V670.178C2383.52 673.993 2378.68 675.647 2376.35 672.631L2373.09 668.429C2371.99 667.006 2370.29 666.173 2368.49 666.173H2358.81C2349.42 666.173 2341.81 658.562 2341.81 649.173V634C2341.81 624.611 2349.42 617 2358.81 617Z" stroke="black" stroke-width="9"/>
<g id="Group 1_3">
<path id="Vector 2_3" d="M2360.07 631.05H2384.38" stroke="black" stroke-width="9"/>
<path id="Vector 4_3" d="M2380.76 630.755L2376.62 639.582L2374.88 642.329C2373.8 644.025 2372.57 645.62 2371.21 647.095V647.095C2369.14 649.333 2366.77 651.277 2364.17 652.87L2361.36 654.588" stroke="black" stroke-width="9"/>
<path id="Vector 5_3" d="M2367.57 636.64V636.64C2370.57 644.217 2376.26 650.418 2383.56 654.048L2384.64 654.588" stroke="black" stroke-width="9"/>
<path id="Vector 3_3" d="M2371.71 631.05V625.753" stroke="black" stroke-width="9"/>
</g>
<g id="A_3">
<path id="Vector 6_3" d="M2296.94 679.818L2308.38 659.075C2309.55 656.958 2312.61 657.021 2313.69 659.184L2323.99 679.818" stroke="black" stroke-width="9"/>
<path id="Vector 7_3" d="M2302.8 670.55H2318.36" stroke="black" stroke-width="9"/>
</g>
</g>
<g id="Semibold-S">
<path id="Vector 1_4" d="M2036.24 644.29H2003.55H1998C1988.61 644.29 1981 651.901 1981 661.29V681.161C1981 687.387 1986.05 692.434 1992.27 692.434H1998.01C2001.07 692.434 2003.55 694.91 2003.55 697.966V697.966C2003.55 702.986 2009.7 705.411 2013.12 701.74L2019.14 695.295C2020.84 693.47 2023.23 692.434 2025.72 692.434H2049.54V692.434C2050.29 692.434 2050.89 691.828 2050.89 691.081V678.016M2061.81 617H2087.78C2097.17 617 2104.78 624.611 2104.78 634V657.042C2104.78 662.085 2100.69 666.173 2095.65 666.173H2090.52C2088.31 666.173 2086.52 667.966 2086.52 670.178V670.178C2086.52 673.993 2081.68 675.647 2079.35 672.631L2076.09 668.429C2074.99 667.006 2073.29 666.173 2071.49 666.173H2061.81C2052.42 666.173 2044.81 658.562 2044.81 649.173V634C2044.81 624.611 2052.42 617 2061.81 617Z" stroke="black" stroke-width="8"/>
<g id="Group 1_4">
<path id="Vector 2_4" d="M2063.07 631.05H2087.38" stroke="black" stroke-width="8"/>
<path id="Vector 4_4" d="M2083.76 630.755L2079.62 639.582L2077.88 642.329C2076.8 644.025 2075.57 645.62 2074.21 647.095V647.095C2072.14 649.333 2069.77 651.277 2067.17 652.87L2064.36 654.588" stroke="black" stroke-width="8"/>
<path id="Vector 5_4" d="M2070.57 636.64V636.64C2073.57 644.217 2079.26 650.418 2086.56 654.048L2087.64 654.588" stroke="black" stroke-width="8"/>
<path id="Vector 3_4" d="M2074.71 631.05V625.753" stroke="black" stroke-width="8"/>
</g>
<g id="A_4">
<path id="Vector 6_4" d="M1999.94 679.818L2011.38 659.075C2012.55 656.958 2015.61 657.021 2016.69 659.184L2026.99 679.818" stroke="black" stroke-width="8"/>
<path id="Vector 7_4" d="M2005.8 670.55H2021.36" stroke="black" stroke-width="8"/>
</g>
</g>
<g id="Medium-S">
<path id="Vector 1_5" d="M1740.24 644.29H1707.55H1702C1692.61 644.29 1685 651.901 1685 661.29V681.161C1685 687.387 1690.05 692.434 1696.27 692.434H1702.01C1705.07 692.434 1707.55 694.91 1707.55 697.966V697.966C1707.55 702.986 1713.7 705.411 1717.12 701.74L1723.14 695.295C1724.84 693.47 1727.23 692.434 1729.72 692.434H1753.54V692.434C1754.29 692.434 1754.89 691.828 1754.89 691.081V678.016M1765.81 617H1791.78C1801.17 617 1808.78 624.611 1808.78 634V657.042C1808.78 662.085 1804.69 666.173 1799.65 666.173H1794.52C1792.31 666.173 1790.52 667.966 1790.52 670.178V670.178C1790.52 673.993 1785.68 675.647 1783.35 672.631L1780.09 668.429C1778.99 667.006 1777.29 666.173 1775.49 666.173H1765.81C1756.42 666.173 1748.81 658.562 1748.81 649.173V634C1748.81 624.611 1756.42 617 1765.81 617Z" stroke="black" stroke-width="7"/>
<g id="Group 1_5">
<path id="Vector 2_5" d="M1767.07 631.05H1791.38" stroke="black" stroke-width="7"/>
<path id="Vector 4_5" d="M1787.76 630.755L1783.62 639.582L1781.88 642.329C1780.8 644.025 1779.57 645.62 1778.21 647.095V647.095C1776.14 649.333 1773.77 651.277 1771.17 652.87L1768.36 654.588" stroke="black" stroke-width="7"/>
<path id="Vector 5_5" d="M1774.57 636.64V636.64C1777.57 644.217 1783.26 650.418 1790.56 654.048L1791.64 654.588" stroke="black" stroke-width="7"/>
<path id="Vector 3_5" d="M1778.71 631.05V625.753" stroke="black" stroke-width="7"/>
</g>
<g id="A_5">
<path id="Vector 6_5" d="M1703.94 679.818L1715.38 659.075C1716.55 656.958 1719.61 657.021 1720.69 659.184L1730.99 679.818" stroke="black" stroke-width="7"/>
<path id="Vector 7_5" d="M1709.8 670.55H1725.36" stroke="black" stroke-width="7"/>
</g>
</g>
<g id="Regular-S">
<path id="Vector 1_6" d="M1443.24 644.29H1410.55H1405C1395.61 644.29 1388 651.901 1388 661.29V681.161C1388 687.387 1393.05 692.434 1399.27 692.434H1405.01C1408.07 692.434 1410.55 694.91 1410.55 697.966V697.966C1410.55 702.986 1416.7 705.411 1420.12 701.74L1426.14 695.295C1427.84 693.47 1430.23 692.434 1432.72 692.434H1456.54V692.434C1457.29 692.434 1457.89 691.828 1457.89 691.081V678.016M1468.81 617H1494.78C1504.17 617 1511.78 624.611 1511.78 634V657.042C1511.78 662.085 1507.69 666.173 1502.65 666.173H1497.52C1495.31 666.173 1493.52 667.966 1493.52 670.178V670.178C1493.52 673.993 1488.68 675.647 1486.35 672.631L1483.09 668.429C1481.99 667.006 1480.29 666.173 1478.49 666.173H1468.81C1459.42 666.173 1451.81 658.562 1451.81 649.173V634C1451.81 624.611 1459.42 617 1468.81 617Z" stroke="black" stroke-width="6"/>
<g id="Group 1_6">
<path id="Vector 2_6" d="M1470.07 631.05H1494.38" stroke="black" stroke-width="6"/>
<path id="Vector 4_6" d="M1490.76 630.755L1486.62 639.582L1484.88 642.329C1483.8 644.025 1482.57 645.62 1481.21 647.095V647.095C1479.14 649.333 1476.77 651.277 1474.17 652.87L1471.36 654.588" stroke="black" stroke-width="6"/>
<path id="Vector 5_6" d="M1477.57 636.64V636.64C1480.57 644.217 1486.26 650.418 1493.56 654.048L1494.64 654.588" stroke="black" stroke-width="6"/>
<path id="Vector 3_6" d="M1481.71 631.05V625.753" stroke="black" stroke-width="6"/>
</g>
<g id="A_6">
<path id="Vector 6_6" d="M1406.94 679.818L1418.38 659.075C1419.55 656.958 1422.61 657.021 1423.69 659.184L1433.99 679.818" stroke="black" stroke-width="6"/>
<path id="Vector 7_6" d="M1412.8 670.55H1428.36" stroke="black" stroke-width="6"/>
</g>
</g>
<g id="Light-S">
<path id="Vector 1_7" d="M1146.24 644.29H1113.55H1108C1098.61 644.29 1091 651.901 1091 661.29V681.161C1091 687.387 1096.05 692.434 1102.27 692.434H1108.01C1111.07 692.434 1113.55 694.91 1113.55 697.966V697.966C1113.55 702.986 1119.7 705.411 1123.12 701.74L1129.14 695.295C1130.84 693.47 1133.23 692.434 1135.72 692.434H1159.54V692.434C1160.29 692.434 1160.89 691.828 1160.89 691.081V678.016M1171.81 617H1197.78C1207.17 617 1214.78 624.611 1214.78 634V657.042C1214.78 662.085 1210.69 666.173 1205.65 666.173H1200.52C1198.31 666.173 1196.52 667.966 1196.52 670.178V670.178C1196.52 673.993 1191.68 675.647 1189.35 672.631L1186.09 668.429C1184.99 667.006 1183.29 666.173 1181.49 666.173H1171.81C1162.42 666.173 1154.81 658.562 1154.81 649.173V634C1154.81 624.611 1162.42 617 1171.81 617Z" stroke="black" stroke-width="5"/>
<g id="Group 1_7">
<path id="Vector 2_7" d="M1173.07 631.05H1197.38" stroke="black" stroke-width="5"/>
<path id="Vector 4_7" d="M1193.76 630.755L1189.62 639.582L1187.88 642.329C1186.8 644.025 1185.57 645.62 1184.21 647.095V647.095C1182.14 649.333 1179.77 651.277 1177.17 652.87L1174.36 654.588" stroke="black" stroke-width="5"/>
<path id="Vector 5_7" d="M1180.57 636.64V636.64C1183.57 644.217 1189.26 650.418 1196.56 654.048L1197.64 654.588" stroke="black" stroke-width="5"/>
<path id="Vector 3_7" d="M1184.71 631.05V625.753" stroke="black" stroke-width="5"/>
</g>
<g id="A_7">
<path id="Vector 6_7" d="M1109.94 679.818L1121.38 659.075C1122.55 656.958 1125.61 657.021 1126.69 659.184L1136.99 679.818" stroke="black" stroke-width="5"/>
<path id="Vector 7_7" d="M1115.8 670.55H1131.36" stroke="black" stroke-width="5"/>
</g>
</g>
<g id="Thin-S">
<path id="Vector 1_8" d="M849.238 644.29H816.546H811C801.611 644.29 794 651.901 794 661.29V681.161C794 687.387 799.047 692.434 805.273 692.434H811.014C814.069 692.434 816.546 694.91 816.546 697.966V697.966C816.546 702.986 822.696 705.411 826.122 701.74L832.138 695.295C833.841 693.47 836.226 692.434 838.722 692.434H862.54V692.434C863.287 692.434 863.893 691.828 863.893 691.081V678.016M874.805 617H900.778C910.167 617 917.778 624.611 917.778 634V657.042C917.778 662.085 913.69 666.173 908.647 666.173H903.52C901.308 666.173 899.516 667.966 899.516 670.178V670.178C899.516 673.993 894.685 675.647 892.347 672.631L889.089 668.429C887.986 667.006 886.287 666.173 884.487 666.173H874.805C865.416 666.173 857.805 658.562 857.805 649.173V634C857.805 624.611 865.416 617 874.805 617Z" stroke="black" stroke-width="4"/>
<g id="Group 1_8">
<path id="Vector 2_8" d="M876.068 631.05H900.384" stroke="black" stroke-width="4"/>
<path id="Vector 4_8" d="M896.763 630.755L892.624 639.582L890.879 642.329C889.802 644.025 888.574 645.62 887.21 647.095V647.095C885.138 649.333 882.768 651.277 880.166 652.87L877.361 654.588" stroke="black" stroke-width="4"/>
<path id="Vector 5_8" d="M883.57 636.64V636.64C886.567 644.217 892.262 650.418 899.557 654.048L900.643 654.588" stroke="black" stroke-width="4"/>
<path id="Vector 3_8" d="M887.708 631.05V625.753" stroke="black" stroke-width="4"/>
</g>
<g id="A_8">
<path id="Vector 6_8" d="M812.939 679.818L824.383 659.075C825.551 656.958 828.614 657.021 829.694 659.184L839.994 679.818" stroke="black" stroke-width="4"/>
<path id="Vector 7_8" d="M818.801 670.55H834.357" stroke="black" stroke-width="4"/>
</g>
</g>
<g id="Ultrathin-S">
<path id="Vector 1_9" d="M553.238 644.29H520.546H515C505.611 644.29 498 651.901 498 661.29V681.161C498 687.387 503.047 692.434 509.273 692.434H515.014C518.069 692.434 520.546 694.91 520.546 697.966V697.966C520.546 702.986 526.696 705.411 530.122 701.74L536.138 695.295C537.841 693.47 540.226 692.434 542.722 692.434H566.54V692.434C567.287 692.434 567.893 691.828 567.893 691.081V678.016M578.805 617H604.778C614.167 617 621.778 624.611 621.778 634V657.042C621.778 662.085 617.69 666.173 612.647 666.173H607.52C605.308 666.173 603.516 667.966 603.516 670.178V670.178C603.516 673.993 598.685 675.647 596.347 672.631L593.089 668.429C591.986 667.006 590.287 666.173 588.487 666.173H578.805C569.416 666.173 561.805 658.562 561.805 649.173V634C561.805 624.611 569.416 617 578.805 617Z" stroke="black" stroke-width="3"/>
<g id="Group 1_9">
<path id="Vector 2_9" d="M580.068 631.05H604.384" stroke="black" stroke-width="3"/>
<path id="Vector 4_9" d="M600.763 630.755L596.624 639.582L594.879 642.329C593.802 644.025 592.574 645.62 591.21 647.095V647.095C589.138 649.333 586.768 651.277 584.166 652.87L581.361 654.588" stroke="black" stroke-width="3"/>
<path id="Vector 5_9" d="M587.57 636.64V636.64C590.567 644.217 596.262 650.418 603.557 654.048L604.643 654.588" stroke="black" stroke-width="3"/>
<path id="Vector 3_9" d="M591.708 631.05V625.753" stroke="black" stroke-width="3"/>
</g>
<g id="A_9">
<path id="Vector 6_9" d="M516.939 679.818L528.383 659.075C529.551 656.958 532.614 657.021 533.694 659.184L543.994 679.818" stroke="black" stroke-width="3"/>
<path id="Vector 7_9" d="M522.801 670.55H538.357" stroke="black" stroke-width="3"/>
</g>
</g>
<g id="Ultrathin-M">
<path id="Vector 1_10" d="M553.337 1068.04H520.587H515C505.611 1068.04 498 1075.65 498 1085.04V1115.02C498 1121.26 503.056 1126.31 509.293 1126.31H514.56C517.889 1126.31 520.587 1129.01 520.587 1132.34V1132.34C520.587 1138.09 527.868 1140.57 531.382 1136.02L536.255 1129.71C537.912 1127.57 540.468 1126.31 543.178 1126.31H566.663V1126.31C567.411 1126.31 568.018 1125.71 568.018 1124.96V1108.86M578.92 1035H605C614.389 1035 622 1042.61 622 1052V1085.38C622 1090.43 617.905 1094.53 612.852 1094.53H608.015C605.635 1094.53 603.705 1096.46 603.705 1098.84V1098.84C603.705 1103.14 598.091 1104.79 595.767 1101.16L593.193 1097.15C592.143 1095.52 590.333 1094.53 588.389 1094.53H578.92C569.531 1094.53 561.92 1086.91 561.92 1077.53V1052C561.92 1042.61 569.531 1035 578.92 1035Z" stroke="black" stroke-width="3"/>
<g id="Group 1_10">
<path id="Vector 2_10" d="M580.215 1052.01H604.575" stroke="black" stroke-width="3"/>
<path id="Vector 4_10" d="M600.947 1051.65L596.801 1062.34L594.924 1065.91C593.931 1067.8 592.779 1069.6 591.481 1071.29V1071.29C589.337 1074.09 586.81 1076.58 583.976 1078.68L581.511 1080.5" stroke="black" stroke-width="3"/>
<path id="Vector 5_10" d="M587.73 1058.77L587.879 1059.23C590.792 1068.13 596.811 1075.68 604.834 1080.5V1080.5" stroke="black" stroke-width="3"/>
<path id="Vector 3_10" d="M591.877 1052.01V1045.6" stroke="black" stroke-width="3"/>
</g>
<g id="A_10">
<path id="Vector 6_10" d="M516.973 1111.04L528.336 1086.16C529.425 1083.77 532.836 1083.83 533.837 1086.26L544.076 1111.04" stroke="black" stroke-width="3"/>
<path id="Vector 7_10" d="M522.845 1099.82H538.43" stroke="black" stroke-width="3"/>
</g>
</g>
<g id="Thin-M">
<path id="Vector 1_11" d="M849.337 1068.04H816.587H811C801.611 1068.04 794 1075.65 794 1085.04V1115.02C794 1121.26 799.056 1126.31 805.293 1126.31H810.56C813.889 1126.31 816.587 1129.01 816.587 1132.34V1132.34C816.587 1138.09 823.868 1140.57 827.382 1136.02L832.255 1129.71C833.912 1127.57 836.468 1126.31 839.178 1126.31H862.663V1126.31C863.411 1126.31 864.018 1125.71 864.018 1124.96V1108.86M874.92 1035H901C910.389 1035 918 1042.61 918 1052V1085.38C918 1090.43 913.905 1094.53 908.852 1094.53H904.015C901.635 1094.53 899.705 1096.46 899.705 1098.84V1098.84C899.705 1103.14 894.091 1104.79 891.767 1101.16L889.193 1097.15C888.143 1095.52 886.333 1094.53 884.389 1094.53H874.92C865.531 1094.53 857.92 1086.91 857.92 1077.53V1052C857.92 1042.61 865.531 1035 874.92 1035Z" stroke="black" stroke-width="4"/>
<g id="Group 1_11">
<path id="Vector 2_11" d="M876.215 1052.01H900.575" stroke="black" stroke-width="4"/>
<path id="Vector 4_11" d="M896.947 1051.65L892.801 1062.34L890.924 1065.91C889.931 1067.8 888.779 1069.6 887.481 1071.29V1071.29C885.337 1074.09 882.81 1076.58 879.976 1078.68L877.511 1080.5" stroke="black" stroke-width="4"/>
<path id="Vector 5_11" d="M883.73 1058.77L883.879 1059.23C886.792 1068.13 892.811 1075.68 900.834 1080.5V1080.5" stroke="black" stroke-width="4"/>
<path id="Vector 3_11" d="M887.877 1052.01V1045.6" stroke="black" stroke-width="4"/>
</g>
<g id="A_11">
<path id="Vector 6_11" d="M812.973 1111.04L824.336 1086.16C825.425 1083.77 828.836 1083.83 829.837 1086.26L840.077 1111.04" stroke="black" stroke-width="4"/>
<path id="Vector 7_11" d="M818.845 1099.82H834.43" stroke="black" stroke-width="4"/>
</g>
</g>
<g id="Thin-M_2">
<path id="Vector 1_12" d="M1146.34 1068.04H1113.59H1108C1098.61 1068.04 1091 1075.65 1091 1085.04V1115.02C1091 1121.26 1096.06 1126.31 1102.29 1126.31H1107.56C1110.89 1126.31 1113.59 1129.01 1113.59 1132.34V1132.34C1113.59 1138.09 1120.87 1140.57 1124.38 1136.02L1129.26 1129.71C1130.91 1127.57 1133.47 1126.31 1136.18 1126.31H1159.66V1126.31C1160.41 1126.31 1161.02 1125.71 1161.02 1124.96V1108.86M1171.92 1035H1198C1207.39 1035 1215 1042.61 1215 1052V1085.38C1215 1090.43 1210.9 1094.53 1205.85 1094.53H1201.02C1198.63 1094.53 1196.7 1096.46 1196.7 1098.84V1098.84C1196.7 1103.14 1191.09 1104.79 1188.77 1101.16L1186.19 1097.15C1185.14 1095.52 1183.33 1094.53 1181.39 1094.53H1171.92C1162.53 1094.53 1154.92 1086.91 1154.92 1077.53V1052C1154.92 1042.61 1162.53 1035 1171.92 1035Z" stroke="black" stroke-width="3"/>
<g id="Group 1_12">
<path id="Vector 2_12" d="M1173.21 1052.01H1197.58" stroke="black" stroke-width="3"/>
<path id="Vector 4_12" d="M1193.95 1051.65L1189.8 1062.34L1187.92 1065.91C1186.93 1067.8 1185.78 1069.6 1184.48 1071.29V1071.29C1182.34 1074.09 1179.81 1076.58 1176.98 1078.68L1174.51 1080.5" stroke="black" stroke-width="3"/>
<path id="Vector 5_12" d="M1180.73 1058.77L1180.88 1059.23C1183.79 1068.13 1189.81 1075.68 1197.83 1080.5V1080.5" stroke="black" stroke-width="3"/>
<path id="Vector 3_12" d="M1184.88 1052.01V1045.6" stroke="black" stroke-width="3"/>
</g>
<g id="A_12">
<path id="Vector 6_12" d="M1109.97 1111.04L1121.34 1086.16C1122.43 1083.77 1125.84 1083.83 1126.84 1086.26L1137.08 1111.04" stroke="black" stroke-width="3"/>
<path id="Vector 7_12" d="M1115.85 1099.82H1131.43" stroke="black" stroke-width="3"/>
</g>
</g>
<g id="Light-M">
<path id="Vector 1_13" d="M1146.34 1068.04H1113.59H1108C1098.61 1068.04 1091 1075.65 1091 1085.04V1115.02C1091 1121.26 1096.06 1126.31 1102.29 1126.31H1107.56C1110.89 1126.31 1113.59 1129.01 1113.59 1132.34V1132.34C1113.59 1138.09 1120.87 1140.57 1124.38 1136.02L1129.26 1129.71C1130.91 1127.57 1133.47 1126.31 1136.18 1126.31H1159.66V1126.31C1160.41 1126.31 1161.02 1125.71 1161.02 1124.96V1108.86M1171.92 1035H1198C1207.39 1035 1215 1042.61 1215 1052V1085.38C1215 1090.43 1210.9 1094.53 1205.85 1094.53H1201.02C1198.63 1094.53 1196.7 1096.46 1196.7 1098.84V1098.84C1196.7 1103.14 1191.09 1104.79 1188.77 1101.16L1186.19 1097.15C1185.14 1095.52 1183.33 1094.53 1181.39 1094.53H1171.92C1162.53 1094.53 1154.92 1086.91 1154.92 1077.53V1052C1154.92 1042.61 1162.53 1035 1171.92 1035Z" stroke="black" stroke-width="5"/>
<g id="Group 1_13">
<path id="Vector 2_13" d="M1173.21 1052.01H1197.58" stroke="black" stroke-width="5"/>
<path id="Vector 4_13" d="M1193.95 1051.65L1189.8 1062.34L1187.92 1065.91C1186.93 1067.8 1185.78 1069.6 1184.48 1071.29V1071.29C1182.34 1074.09 1179.81 1076.58 1176.98 1078.68L1174.51 1080.5" stroke="black" stroke-width="5"/>
<path id="Vector 5_13" d="M1180.73 1058.77L1180.88 1059.23C1183.79 1068.13 1189.81 1075.68 1197.83 1080.5V1080.5" stroke="black" stroke-width="5"/>
<path id="Vector 3_13" d="M1184.88 1052.01V1045.6" stroke="black" stroke-width="5"/>
</g>
<g id="A_13">
<path id="Vector 6_13" d="M1109.97 1111.04L1121.34 1086.16C1122.43 1083.77 1125.84 1083.83 1126.84 1086.26L1137.08 1111.04" stroke="black" stroke-width="5"/>
<path id="Vector 7_13" d="M1115.85 1099.82H1131.43" stroke="black" stroke-width="5"/>
</g>
</g>
<g id="Regular-M">
<path id="Vector 1_14" d="M1427.34 1068.04H1394.59H1389C1379.61 1068.04 1372 1075.65 1372 1085.04V1115.02C1372 1121.26 1377.06 1126.31 1383.29 1126.31H1388.56C1391.89 1126.31 1394.59 1129.01 1394.59 1132.34V1132.34C1394.59 1138.09 1401.87 1140.57 1405.38 1136.02L1410.26 1129.71C1411.91 1127.57 1414.47 1126.31 1417.18 1126.31H1440.66V1126.31C1441.41 1126.31 1442.02 1125.71 1442.02 1124.96V1108.86M1452.92 1035H1479C1488.39 1035 1496 1042.61 1496 1052V1085.38C1496 1090.43 1491.9 1094.53 1486.85 1094.53H1482.02C1479.63 1094.53 1477.7 1096.46 1477.7 1098.84V1098.84C1477.7 1103.14 1472.09 1104.79 1469.77 1101.16L1467.19 1097.15C1466.14 1095.52 1464.33 1094.53 1462.39 1094.53H1452.92C1443.53 1094.53 1435.92 1086.91 1435.92 1077.53V1052C1435.92 1042.61 1443.53 1035 1452.92 1035Z" stroke="black" stroke-width="6"/>
<g id="Group 1_14">
<path id="Vector 2_14" d="M1454.21 1052.01H1478.58" stroke="black" stroke-width="6"/>
<path id="Vector 4_14" d="M1474.95 1051.65L1470.8 1062.34L1468.92 1065.91C1467.93 1067.8 1466.78 1069.6 1465.48 1071.29V1071.29C1463.34 1074.09 1460.81 1076.58 1457.98 1078.68L1455.51 1080.5" stroke="black" stroke-width="6"/>
<path id="Vector 5_14" d="M1461.73 1058.77L1461.88 1059.23C1464.79 1068.13 1470.81 1075.68 1478.83 1080.5V1080.5" stroke="black" stroke-width="6"/>
<path id="Vector 3_14" d="M1465.88 1052.01V1045.6" stroke="black" stroke-width="6"/>
</g>
<g id="A_14">
<path id="Vector 6_14" d="M1390.97 1111.04L1402.34 1086.16C1403.43 1083.77 1406.84 1083.83 1407.84 1086.26L1418.08 1111.04" stroke="black" stroke-width="6"/>
<path id="Vector 7_14" d="M1396.85 1099.82H1412.43" stroke="black" stroke-width="6"/>
</g>
</g>
<g id="Medium-M">
<path id="Vector 1_15" d="M1723.34 1068.04H1690.59H1685C1675.61 1068.04 1668 1075.65 1668 1085.04V1115.02C1668 1121.26 1673.06 1126.31 1679.29 1126.31H1684.56C1687.89 1126.31 1690.59 1129.01 1690.59 1132.34V1132.34C1690.59 1138.09 1697.87 1140.57 1701.38 1136.02L1706.26 1129.71C1707.91 1127.57 1710.47 1126.31 1713.18 1126.31H1736.66V1126.31C1737.41 1126.31 1738.02 1125.71 1738.02 1124.96V1108.86M1748.92 1035H1775C1784.39 1035 1792 1042.61 1792 1052V1085.38C1792 1090.43 1787.9 1094.53 1782.85 1094.53H1778.02C1775.63 1094.53 1773.7 1096.46 1773.7 1098.84V1098.84C1773.7 1103.14 1768.09 1104.79 1765.77 1101.16L1763.19 1097.15C1762.14 1095.52 1760.33 1094.53 1758.39 1094.53H1748.92C1739.53 1094.53 1731.92 1086.91 1731.92 1077.53V1052C1731.92 1042.61 1739.53 1035 1748.92 1035Z" stroke="black" stroke-width="7"/>
<g id="Group 1_15">
<path id="Vector 2_15" d="M1750.21 1052.01H1774.58" stroke="black" stroke-width="7"/>
<path id="Vector 4_15" d="M1770.95 1051.65L1766.8 1062.34L1764.92 1065.91C1763.93 1067.8 1762.78 1069.6 1761.48 1071.29V1071.29C1759.34 1074.09 1756.81 1076.58 1753.98 1078.68L1751.51 1080.5" stroke="black" stroke-width="7"/>
<path id="Vector 5_15" d="M1757.73 1058.77L1757.88 1059.23C1760.79 1068.13 1766.81 1075.68 1774.83 1080.5V1080.5" stroke="black" stroke-width="7"/>
<path id="Vector 3_15" d="M1761.88 1052.01V1045.6" stroke="black" stroke-width="7"/>
</g>
<g id="A_15">
<path id="Vector 6_15" d="M1686.97 1111.04L1698.34 1086.16C1699.43 1083.77 1702.84 1083.83 1703.84 1086.26L1714.08 1111.04" stroke="black" stroke-width="7"/>
<path id="Vector 7_15" d="M1692.85 1099.82H1708.43" stroke="black" stroke-width="7"/>
</g>
</g>
<g id="Semibold-M">
<path id="Vector 1_16" d="M2020.34 1068.04H1987.59H1982C1972.61 1068.04 1965 1075.65 1965 1085.04V1115.02C1965 1121.26 1970.06 1126.31 1976.29 1126.31H1981.56C1984.89 1126.31 1987.59 1129.01 1987.59 1132.34V1132.34C1987.59 1138.09 1994.87 1140.57 1998.38 1136.02L2003.26 1129.71C2004.91 1127.57 2007.47 1126.31 2010.18 1126.31H2033.66V1126.31C2034.41 1126.31 2035.02 1125.71 2035.02 1124.96V1108.86M2045.92 1035H2072C2081.39 1035 2089 1042.61 2089 1052V1085.38C2089 1090.43 2084.9 1094.53 2079.85 1094.53H2075.02C2072.63 1094.53 2070.7 1096.46 2070.7 1098.84V1098.84C2070.7 1103.14 2065.09 1104.79 2062.77 1101.16L2060.19 1097.15C2059.14 1095.52 2057.33 1094.53 2055.39 1094.53H2045.92C2036.53 1094.53 2028.92 1086.91 2028.92 1077.53V1052C2028.92 1042.61 2036.53 1035 2045.92 1035Z" stroke="black" stroke-width="8"/>
<g id="Group 1_16">
<path id="Vector 2_16" d="M2047.21 1052.01H2071.58" stroke="black" stroke-width="8"/>
<path id="Vector 4_16" d="M2067.95 1051.65L2063.8 1062.34L2061.92 1065.91C2060.93 1067.8 2059.78 1069.6 2058.48 1071.29V1071.29C2056.34 1074.09 2053.81 1076.58 2050.98 1078.68L2048.51 1080.5" stroke="black" stroke-width="8"/>
<path id="Vector 5_16" d="M2054.73 1058.77L2054.88 1059.23C2057.79 1068.13 2063.81 1075.68 2071.83 1080.5V1080.5" stroke="black" stroke-width="8"/>
<path id="Vector 3_16" d="M2058.88 1052.01V1045.6" stroke="black" stroke-width="8"/>
</g>
<g id="A_16">
<path id="Vector 6_16" d="M1983.97 1111.04L1995.34 1086.16C1996.43 1083.77 1999.84 1083.83 2000.84 1086.26L2011.08 1111.04" stroke="black" stroke-width="8"/>
<path id="Vector 7_16" d="M1989.85 1099.82H2005.43" stroke="black" stroke-width="8"/>
</g>
</g>
<g id="Bold-M">
<path id="Vector 1_17" d="M2317.34 1068.04H2284.59H2279C2269.61 1068.04 2262 1075.65 2262 1085.04V1115.02C2262 1121.26 2267.06 1126.31 2273.29 1126.31H2278.56C2281.89 1126.31 2284.59 1129.01 2284.59 1132.34V1132.34C2284.59 1138.09 2291.87 1140.57 2295.38 1136.02L2300.26 1129.71C2301.91 1127.57 2304.47 1126.31 2307.18 1126.31H2330.66V1126.31C2331.41 1126.31 2332.02 1125.71 2332.02 1124.96V1108.86M2342.92 1035H2369C2378.39 1035 2386 1042.61 2386 1052V1085.38C2386 1090.43 2381.9 1094.53 2376.85 1094.53H2372.02C2369.63 1094.53 2367.7 1096.46 2367.7 1098.84V1098.84C2367.7 1103.14 2362.09 1104.79 2359.77 1101.16L2357.19 1097.15C2356.14 1095.52 2354.33 1094.53 2352.39 1094.53H2342.92C2333.53 1094.53 2325.92 1086.91 2325.92 1077.53V1052C2325.92 1042.61 2333.53 1035 2342.92 1035Z" stroke="black" stroke-width="9"/>
<g id="Group 1_17">
<path id="Vector 2_17" d="M2344.21 1052.01H2368.57" stroke="black" stroke-width="9"/>
<path id="Vector 4_17" d="M2364.95 1051.65L2360.8 1062.34L2358.92 1065.91C2357.93 1067.8 2356.78 1069.6 2355.48 1071.29V1071.29C2353.34 1074.09 2350.81 1076.58 2347.98 1078.68L2345.51 1080.5" stroke="black" stroke-width="9"/>
<path id="Vector 5_17" d="M2351.73 1058.77L2351.88 1059.23C2354.79 1068.13 2360.81 1075.68 2368.83 1080.5V1080.5" stroke="black" stroke-width="9"/>
<path id="Vector 3_17" d="M2355.88 1052.01V1045.6" stroke="black" stroke-width="9"/>
</g>
<g id="A_17">
<path id="Vector 6_17" d="M2280.97 1111.04L2292.34 1086.16C2293.43 1083.77 2296.84 1083.83 2297.84 1086.26L2308.08 1111.04" stroke="black" stroke-width="9"/>
<path id="Vector 7_17" d="M2286.85 1099.82H2302.43" stroke="black" stroke-width="9"/>
</g>
</g>
<g id="Heavy-M">
<path id="Vector 1_18" d="M2613.34 1068.04H2580.59H2575C2565.61 1068.04 2558 1075.65 2558 1085.04V1115.02C2558 1121.26 2563.06 1126.31 2569.29 1126.31H2574.56C2577.89 1126.31 2580.59 1129.01 2580.59 1132.34V1132.34C2580.59 1138.09 2587.87 1140.57 2591.38 1136.02L2596.26 1129.71C2597.91 1127.57 2600.47 1126.31 2603.18 1126.31H2626.66V1126.31C2627.41 1126.31 2628.02 1125.71 2628.02 1124.96V1108.86M2638.92 1035H2665C2674.39 1035 2682 1042.61 2682 1052V1085.38C2682 1090.43 2677.9 1094.53 2672.85 1094.53H2668.02C2665.63 1094.53 2663.7 1096.46 2663.7 1098.84V1098.84C2663.7 1103.14 2658.09 1104.79 2655.77 1101.16L2653.19 1097.15C2652.14 1095.52 2650.33 1094.53 2648.39 1094.53H2638.92C2629.53 1094.53 2621.92 1086.91 2621.92 1077.53V1052C2621.92 1042.61 2629.53 1035 2638.92 1035Z" stroke="black" stroke-width="10"/>
<g id="Group 1_18">
<path id="Vector 2_18" d="M2640.21 1052.01H2664.57" stroke="black" stroke-width="10"/>
<path id="Vector 4_18" d="M2660.95 1051.65L2656.8 1062.34L2654.92 1065.91C2653.93 1067.8 2652.78 1069.6 2651.48 1071.29V1071.29C2649.34 1074.09 2646.81 1076.58 2643.98 1078.68L2641.51 1080.5" stroke="black" stroke-width="10"/>
<path id="Vector 5_18" d="M2647.73 1058.77L2647.88 1059.23C2650.79 1068.13 2656.81 1075.68 2664.83 1080.5V1080.5" stroke="black" stroke-width="10"/>
<path id="Vector 3_18" d="M2651.88 1052.01V1045.6" stroke="black" stroke-width="10"/>
</g>
<g id="A_18">
<path id="Vector 6_18" d="M2576.97 1111.04L2588.34 1086.16C2589.43 1083.77 2592.84 1083.83 2593.84 1086.26L2604.08 1111.04" stroke="black" stroke-width="10"/>
<path id="Vector 7_18" d="M2582.85 1099.82H2598.43" stroke="black" stroke-width="10"/>
</g>
</g>
<g id="Black-M">
<path id="Vector 1_19" d="M2910.34 1068.04H2877.59H2872C2862.61 1068.04 2855 1075.65 2855 1085.04V1115.02C2855 1121.26 2860.06 1126.31 2866.29 1126.31H2871.56C2874.89 1126.31 2877.59 1129.01 2877.59 1132.34V1132.34C2877.59 1138.09 2884.87 1140.57 2888.38 1136.02L2893.26 1129.71C2894.91 1127.57 2897.47 1126.31 2900.18 1126.31H2923.66V1126.31C2924.41 1126.31 2925.02 1125.71 2925.02 1124.96V1108.86M2935.92 1035H2962C2971.39 1035 2979 1042.61 2979 1052V1085.38C2979 1090.43 2974.9 1094.53 2969.85 1094.53H2965.02C2962.63 1094.53 2960.7 1096.46 2960.7 1098.84V1098.84C2960.7 1103.14 2955.09 1104.79 2952.77 1101.16L2950.19 1097.15C2949.14 1095.52 2947.33 1094.53 2945.39 1094.53H2935.92C2926.53 1094.53 2918.92 1086.91 2918.92 1077.53V1052C2918.92 1042.61 2926.53 1035 2935.92 1035Z" stroke="black" stroke-width="11"/>
<g id="Group 1_19">
<path id="Vector 2_19" d="M2937.21 1052.01H2961.58" stroke="black" stroke-width="11"/>
<path id="Vector 4_19" d="M2957.95 1051.65L2953.8 1062.34L2951.92 1065.91C2950.93 1067.8 2949.78 1069.6 2948.48 1071.29V1071.29C2946.34 1074.09 2943.81 1076.58 2940.98 1078.68L2938.51 1080.5" stroke="black" stroke-width="11"/>
<path id="Vector 5_19" d="M2944.73 1058.77L2944.88 1059.23C2947.79 1068.13 2953.81 1075.68 2961.83 1080.5V1080.5" stroke="black" stroke-width="11"/>
<path id="Vector 3_19" d="M2948.88 1052.01V1045.6" stroke="black" stroke-width="11"/>
</g>
<g id="A_19">
<path id="Vector 6_19" d="M2873.97 1111.04L2885.34 1086.16C2886.42 1083.77 2889.84 1083.83 2890.84 1086.26L2901.08 1111.04" stroke="black" stroke-width="11"/>
<path id="Vector 7_19" d="M2879.85 1099.82H2895.43" stroke="black" stroke-width="11"/>
</g>
</g>
<g id="Ultrathin-L">
<path id="Vector 1_20" d="M553.783 1505.91H520.769H515C505.611 1505.91 498 1513.52 498 1522.91V1557.87C498 1564.16 503.097 1569.25 509.384 1569.25H514.509C517.966 1569.25 520.769 1572.06 520.769 1575.51V1575.51C520.769 1581.6 528.573 1584.11 532.116 1579.16L536.599 1572.9C538.239 1570.61 540.882 1569.25 543.697 1569.25H567.217V1569.25C567.971 1569.25 568.583 1568.64 568.583 1567.89V1550.28M579.435 1470H606C615.389 1470 623 1477.61 623 1487V1525.48C623 1530.57 618.871 1534.7 613.779 1534.7H609.014C606.553 1534.7 604.557 1536.7 604.557 1539.16V1539.16C604.557 1543.69 598.586 1545.33 596.27 1541.44L593.925 1537.5C592.894 1535.76 591.027 1534.7 589.011 1534.7H579.435C570.046 1534.7 562.435 1527.09 562.435 1517.7V1487C562.435 1477.61 570.046 1470 579.435 1470Z" stroke="black" stroke-width="3"/>
<g id="Group 1_20">
<path id="Vector 2_20" d="M580.878 1488.49H605.434" stroke="black" stroke-width="3"/>
<path id="Vector 4_20" d="M601.777 1488.1L597.597 1499.71L595.659 1503.69C594.689 1505.68 593.557 1507.59 592.274 1509.4V1509.4C590.087 1512.48 587.478 1515.23 584.525 1517.59L582.184 1519.46" stroke="black" stroke-width="3"/>
<path id="Vector 5_20" d="M588.454 1495.84L588.814 1497.03C591.618 1506.26 597.598 1514.21 605.696 1519.46V1519.46" stroke="black" stroke-width="3"/>
<path id="Vector 3_20" d="M592.634 1488.49V1481.52" stroke="black" stroke-width="3"/>
</g>
<g id="A_20">
<path id="Vector 6_20" d="M517.126 1552.66L528.568 1525.63C529.621 1523.15 533.166 1523.21 534.132 1525.73L544.448 1552.66" stroke="black" stroke-width="3"/>
<path id="Vector 7_20" d="M523.046 1540.46H538.756" stroke="black" stroke-width="3"/>
</g>
</g>
<g id="Thin-L">
<path id="Vector 1_21" d="M849.783 1505.91H816.769H811C801.611 1505.91 794 1513.52 794 1522.91V1557.87C794 1564.16 799.097 1569.25 805.384 1569.25H810.509C813.966 1569.25 816.769 1572.06 816.769 1575.51V1575.51C816.769 1581.6 824.573 1584.11 828.116 1579.16L832.599 1572.9C834.239 1570.61 836.882 1569.25 839.697 1569.25H863.217V1569.25C863.971 1569.25 864.583 1568.64 864.583 1567.89V1550.28M875.435 1470H902C911.389 1470 919 1477.61 919 1487V1525.48C919 1530.57 914.871 1534.7 909.779 1534.7H905.014C902.553 1534.7 900.557 1536.7 900.557 1539.16V1539.16C900.557 1543.69 894.586 1545.33 892.27 1541.44L889.925 1537.5C888.894 1535.76 887.027 1534.7 885.011 1534.7H875.435C866.046 1534.7 858.435 1527.09 858.435 1517.7V1487C858.435 1477.61 866.046 1470 875.435 1470Z" stroke="black" stroke-width="4"/>
<g id="Group 1_21">
<path id="Vector 2_21" d="M876.878 1488.49H901.434" stroke="black" stroke-width="4"/>
<path id="Vector 4_21" d="M897.777 1488.1L893.597 1499.71L891.659 1503.69C890.689 1505.68 889.557 1507.59 888.274 1509.4V1509.4C886.087 1512.48 883.478 1515.23 880.525 1517.59L878.184 1519.46" stroke="black" stroke-width="4"/>
<path id="Vector 5_21" d="M884.454 1495.84L884.814 1497.03C887.618 1506.26 893.598 1514.21 901.696 1519.46V1519.46" stroke="black" stroke-width="4"/>
<path id="Vector 3_21" d="M888.634 1488.49V1481.52" stroke="black" stroke-width="4"/>
</g>
<g id="A_21">
<path id="Vector 6_21" d="M813.126 1552.66L824.568 1525.63C825.621 1523.15 829.166 1523.21 830.132 1525.73L840.448 1552.66" stroke="black" stroke-width="4"/>
<path id="Vector 7_21" d="M819.046 1540.46H834.756" stroke="black" stroke-width="4"/>
</g>
</g>
<g id="Light-L">
<path id="Vector 1_22" d="M1145.78 1505.91H1112.77H1107C1097.61 1505.91 1090 1513.52 1090 1522.91V1557.87C1090 1564.16 1095.1 1569.25 1101.38 1569.25H1106.51C1109.97 1569.25 1112.77 1572.06 1112.77 1575.51V1575.51C1112.77 1581.6 1120.57 1584.11 1124.12 1579.16L1128.6 1572.9C1130.24 1570.61 1132.88 1569.25 1135.7 1569.25H1159.22V1569.25C1159.97 1569.25 1160.58 1568.64 1160.58 1567.89V1550.28M1171.44 1470H1198C1207.39 1470 1215 1477.61 1215 1487V1525.48C1215 1530.57 1210.87 1534.7 1205.78 1534.7H1201.01C1198.55 1534.7 1196.56 1536.7 1196.56 1539.16V1539.16C1196.56 1543.69 1190.59 1545.33 1188.27 1541.44L1185.92 1537.5C1184.89 1535.76 1183.03 1534.7 1181.01 1534.7H1171.44C1162.05 1534.7 1154.44 1527.09 1154.44 1517.7V1487C1154.44 1477.61 1162.05 1470 1171.44 1470Z" stroke="black" stroke-width="5"/>
<g id="Group 1_22">
<path id="Vector 2_22" d="M1172.88 1488.49H1197.43" stroke="black" stroke-width="5"/>
<path id="Vector 4_22" d="M1193.78 1488.1L1189.6 1499.71L1187.66 1503.69C1186.69 1505.68 1185.56 1507.59 1184.27 1509.4V1509.4C1182.09 1512.48 1179.48 1515.23 1176.53 1517.59L1174.18 1519.46" stroke="black" stroke-width="5"/>
<path id="Vector 5_22" d="M1180.45 1495.84L1180.81 1497.03C1183.62 1506.26 1189.6 1514.21 1197.7 1519.46V1519.46" stroke="black" stroke-width="5"/>
<path id="Vector 3_22" d="M1184.63 1488.49V1481.52" stroke="black" stroke-width="5"/>
</g>
<g id="A_22">
<path id="Vector 6_22" d="M1109.13 1552.66L1120.57 1525.63C1121.62 1523.15 1125.17 1523.21 1126.13 1525.73L1136.45 1552.66" stroke="black" stroke-width="5"/>
<path id="Vector 7_22" d="M1115.05 1540.46H1130.76" stroke="black" stroke-width="5"/>
</g>
</g>
<g id="Medium-L">
<path id="Vector 1_23" d="M1737.78 1505.91H1704.77H1699C1689.61 1505.91 1682 1513.52 1682 1522.91V1557.87C1682 1564.16 1687.1 1569.25 1693.38 1569.25H1698.51C1701.97 1569.25 1704.77 1572.06 1704.77 1575.51V1575.51C1704.77 1581.6 1712.57 1584.11 1716.12 1579.16L1720.6 1572.9C1722.24 1570.61 1724.88 1569.25 1727.7 1569.25H1751.22V1569.25C1751.97 1569.25 1752.58 1568.64 1752.58 1567.89V1550.28M1763.44 1470H1790C1799.39 1470 1807 1477.61 1807 1487V1525.48C1807 1530.57 1802.87 1534.7 1797.78 1534.7H1793.01C1790.55 1534.7 1788.56 1536.7 1788.56 1539.16V1539.16C1788.56 1543.69 1782.59 1545.33 1780.27 1541.44L1777.92 1537.5C1776.89 1535.76 1775.03 1534.7 1773.01 1534.7H1763.44C1754.05 1534.7 1746.44 1527.09 1746.44 1517.7V1487C1746.44 1477.61 1754.05 1470 1763.44 1470Z" stroke="black" stroke-width="7"/>
<g id="Group 1_23">
<path id="Vector 2_23" d="M1764.88 1488.49H1789.43" stroke="black" stroke-width="7"/>
<path id="Vector 4_23" d="M1785.78 1488.1L1781.6 1499.71L1779.66 1503.69C1778.69 1505.68 1777.56 1507.59 1776.27 1509.4V1509.4C1774.09 1512.48 1771.48 1515.23 1768.53 1517.59L1766.18 1519.46" stroke="black" stroke-width="7"/>
<path id="Vector 5_23" d="M1772.45 1495.84L1772.81 1497.03C1775.62 1506.26 1781.6 1514.21 1789.7 1519.46V1519.46" stroke="black" stroke-width="7"/>
<path id="Vector 3_23" d="M1776.63 1488.49V1481.52" stroke="black" stroke-width="7"/>
</g>
<g id="A_23">
<path id="Vector 6_23" d="M1701.13 1552.66L1712.57 1525.63C1713.62 1523.15 1717.17 1523.21 1718.13 1525.73L1728.45 1552.66" stroke="black" stroke-width="7"/>
<path id="Vector 7_23" d="M1707.05 1540.46H1722.76" stroke="black" stroke-width="7"/>
</g>
</g>
<g id="Semibold-L">
<path id="Vector 1_24" d="M2033.78 1505.91H2000.77H1995C1985.61 1505.91 1978 1513.52 1978 1522.91V1557.87C1978 1564.16 1983.1 1569.25 1989.38 1569.25H1994.51C1997.97 1569.25 2000.77 1572.06 2000.77 1575.51V1575.51C2000.77 1581.6 2008.57 1584.11 2012.12 1579.16L2016.6 1572.9C2018.24 1570.61 2020.88 1569.25 2023.7 1569.25H2047.22V1569.25C2047.97 1569.25 2048.58 1568.64 2048.58 1567.89V1550.28M2059.44 1470H2086C2095.39 1470 2103 1477.61 2103 1487V1525.48C2103 1530.57 2098.87 1534.7 2093.78 1534.7H2089.01C2086.55 1534.7 2084.56 1536.7 2084.56 1539.16V1539.16C2084.56 1543.69 2078.59 1545.33 2076.27 1541.44L2073.92 1537.5C2072.89 1535.76 2071.03 1534.7 2069.01 1534.7H2059.44C2050.05 1534.7 2042.44 1527.09 2042.44 1517.7V1487C2042.44 1477.61 2050.05 1470 2059.44 1470Z" stroke="black" stroke-width="3"/>
<g id="Group 1_24">
<path id="Vector 2_24" d="M2060.88 1488.49H2085.43" stroke="black" stroke-width="3"/>
<path id="Vector 4_24" d="M2081.78 1488.1L2077.6 1499.71L2075.66 1503.69C2074.69 1505.68 2073.56 1507.59 2072.27 1509.4V1509.4C2070.09 1512.48 2067.48 1515.23 2064.53 1517.59L2062.18 1519.46" stroke="black" stroke-width="3"/>
<path id="Vector 5_24" d="M2068.45 1495.84L2068.81 1497.03C2071.62 1506.26 2077.6 1514.21 2085.7 1519.46V1519.46" stroke="black" stroke-width="3"/>
<path id="Vector 3_24" d="M2072.63 1488.49V1481.52" stroke="black" stroke-width="3"/>
</g>
<g id="A_24">
<path id="Vector 6_24" d="M1997.13 1552.66L2008.57 1525.63C2009.62 1523.15 2013.17 1523.21 2014.13 1525.73L2024.45 1552.66" stroke="black" stroke-width="3"/>
<path id="Vector 7_24" d="M2003.05 1540.46H2018.76" stroke="black" stroke-width="3"/>
</g>
</g>
<g id="Regular-L">
<path id="Vector 1_25" d="M1441.78 1505.91H1408.77H1403C1393.61 1505.91 1386 1513.52 1386 1522.91V1557.87C1386 1564.16 1391.1 1569.25 1397.38 1569.25H1402.51C1405.97 1569.25 1408.77 1572.06 1408.77 1575.51V1575.51C1408.77 1581.6 1416.57 1584.11 1420.12 1579.16L1424.6 1572.9C1426.24 1570.61 1428.88 1569.25 1431.7 1569.25H1455.22V1569.25C1455.97 1569.25 1456.58 1568.64 1456.58 1567.89V1550.28M1467.44 1470H1494C1503.39 1470 1511 1477.61 1511 1487V1525.48C1511 1530.57 1506.87 1534.7 1501.78 1534.7H1497.01C1494.55 1534.7 1492.56 1536.7 1492.56 1539.16V1539.16C1492.56 1543.69 1486.59 1545.33 1484.27 1541.44L1481.92 1537.5C1480.89 1535.76 1479.03 1534.7 1477.01 1534.7H1467.44C1458.05 1534.7 1450.44 1527.09 1450.44 1517.7V1487C1450.44 1477.61 1458.05 1470 1467.44 1470Z" stroke="black" stroke-width="6"/>
<g id="Group 1_25">
<path id="Vector 2_25" d="M1468.88 1488.49H1493.43" stroke="black" stroke-width="6"/>
<path id="Vector 4_25" d="M1489.78 1488.1L1485.6 1499.71L1483.66 1503.69C1482.69 1505.68 1481.56 1507.59 1480.27 1509.4V1509.4C1478.09 1512.48 1475.48 1515.23 1472.53 1517.59L1470.18 1519.46" stroke="black" stroke-width="6"/>
<path id="Vector 5_25" d="M1476.45 1495.84L1476.81 1497.03C1479.62 1506.26 1485.6 1514.21 1493.7 1519.46V1519.46" stroke="black" stroke-width="6"/>
<path id="Vector 3_25" d="M1480.63 1488.49V1481.52" stroke="black" stroke-width="6"/>
</g>
<g id="A_25">
<path id="Vector 6_25" d="M1405.13 1552.66L1416.57 1525.63C1417.62 1523.15 1421.17 1523.21 1422.13 1525.73L1432.45 1552.66" stroke="black" stroke-width="6"/>
<path id="Vector 7_25" d="M1411.05 1540.46H1426.76" stroke="black" stroke-width="6"/>
</g>
</g>
<g id="Semibold-L_2">
<path id="Vector 1_26" d="M2033.78 1505.91H2000.77H1995C1985.61 1505.91 1978 1513.52 1978 1522.91V1557.87C1978 1564.16 1983.1 1569.25 1989.38 1569.25H1994.51C1997.97 1569.25 2000.77 1572.06 2000.77 1575.51V1575.51C2000.77 1581.6 2008.57 1584.11 2012.12 1579.16L2016.6 1572.9C2018.24 1570.61 2020.88 1569.25 2023.7 1569.25H2047.22V1569.25C2047.97 1569.25 2048.58 1568.64 2048.58 1567.89V1550.28M2059.44 1470H2086C2095.39 1470 2103 1477.61 2103 1487V1525.48C2103 1530.57 2098.87 1534.7 2093.78 1534.7H2089.01C2086.55 1534.7 2084.56 1536.7 2084.56 1539.16V1539.16C2084.56 1543.69 2078.59 1545.33 2076.27 1541.44L2073.92 1537.5C2072.89 1535.76 2071.03 1534.7 2069.01 1534.7H2059.44C2050.05 1534.7 2042.44 1527.09 2042.44 1517.7V1487C2042.44 1477.61 2050.05 1470 2059.44 1470Z" stroke="black" stroke-width="8"/>
<g id="Group 1_26">
<path id="Vector 2_26" d="M2060.88 1488.49H2085.43" stroke="black" stroke-width="8"/>
<path id="Vector 4_26" d="M2081.78 1488.1L2077.6 1499.71L2075.66 1503.69C2074.69 1505.68 2073.56 1507.59 2072.27 1509.4V1509.4C2070.09 1512.48 2067.48 1515.23 2064.53 1517.59L2062.18 1519.46" stroke="black" stroke-width="8"/>
<path id="Vector 5_26" d="M2068.45 1495.84L2068.81 1497.03C2071.62 1506.26 2077.6 1514.21 2085.7 1519.46V1519.46" stroke="black" stroke-width="8"/>
<path id="Vector 3_26" d="M2072.63 1488.49V1481.52" stroke="black" stroke-width="8"/>
</g>
<g id="A_26">
<path id="Vector 6_26" d="M1997.13 1552.66L2008.57 1525.63C2009.62 1523.15 2013.17 1523.21 2014.13 1525.73L2024.45 1552.66" stroke="black" stroke-width="8"/>
<path id="Vector 7_26" d="M2003.05 1540.46H2018.76" stroke="black" stroke-width="8"/>
</g>
</g>
<g id="Bold-L">
<path id="Vector 1_27" d="M2329.78 1505.91H2296.77H2291C2281.61 1505.91 2274 1513.52 2274 1522.91V1557.87C2274 1564.16 2279.1 1569.25 2285.38 1569.25H2290.51C2293.97 1569.25 2296.77 1572.06 2296.77 1575.51V1575.51C2296.77 1581.6 2304.57 1584.11 2308.12 1579.16L2312.6 1572.9C2314.24 1570.61 2316.88 1569.25 2319.7 1569.25H2343.22V1569.25C2343.97 1569.25 2344.58 1568.64 2344.58 1567.89V1550.28M2355.44 1470H2382C2391.39 1470 2399 1477.61 2399 1487V1525.48C2399 1530.57 2394.87 1534.7 2389.78 1534.7H2385.01C2382.55 1534.7 2380.56 1536.7 2380.56 1539.16V1539.16C2380.56 1543.69 2374.59 1545.33 2372.27 1541.44L2369.92 1537.5C2368.89 1535.76 2367.03 1534.7 2365.01 1534.7H2355.44C2346.05 1534.7 2338.44 1527.09 2338.44 1517.7V1487C2338.44 1477.61 2346.05 1470 2355.44 1470Z" stroke="black" stroke-width="9"/>
<g id="Group 1_27">
<path id="Vector 2_27" d="M2356.88 1488.49H2381.43" stroke="black" stroke-width="9"/>
<path id="Vector 4_27" d="M2377.78 1488.1L2373.6 1499.71L2371.66 1503.69C2370.69 1505.68 2369.56 1507.59 2368.27 1509.4V1509.4C2366.09 1512.48 2363.48 1515.23 2360.53 1517.59L2358.18 1519.46" stroke="black" stroke-width="9"/>
<path id="Vector 5_27" d="M2364.45 1495.84L2364.81 1497.03C2367.62 1506.26 2373.6 1514.21 2381.7 1519.46V1519.46" stroke="black" stroke-width="9"/>
<path id="Vector 3_27" d="M2368.63 1488.49V1481.52" stroke="black" stroke-width="9"/>
</g>
<g id="A_27">
<path id="Vector 6_27" d="M2293.13 1552.66L2304.57 1525.63C2305.62 1523.15 2309.17 1523.21 2310.13 1525.73L2320.45 1552.66" stroke="black" stroke-width="9"/>
<path id="Vector 7_27" d="M2299.05 1540.46H2314.76" stroke="black" stroke-width="9"/>
</g>
</g>
<g id="Heavy-L">
<path id="Vector 1_28" d="M2625.78 1505.91H2592.77H2587C2577.61 1505.91 2570 1513.52 2570 1522.91V1557.87C2570 1564.16 2575.1 1569.25 2581.38 1569.25H2586.51C2589.97 1569.25 2592.77 1572.06 2592.77 1575.51V1575.51C2592.77 1581.6 2600.57 1584.11 2604.12 1579.16L2608.6 1572.9C2610.24 1570.61 2612.88 1569.25 2615.7 1569.25H2639.22V1569.25C2639.97 1569.25 2640.58 1568.64 2640.58 1567.89V1550.28M2651.44 1470H2678C2687.39 1470 2695 1477.61 2695 1487V1525.48C2695 1530.57 2690.87 1534.7 2685.78 1534.7H2681.01C2678.55 1534.7 2676.56 1536.7 2676.56 1539.16V1539.16C2676.56 1543.69 2670.59 1545.33 2668.27 1541.44L2665.92 1537.5C2664.89 1535.76 2663.03 1534.7 2661.01 1534.7H2651.44C2642.05 1534.7 2634.44 1527.09 2634.44 1517.7V1487C2634.44 1477.61 2642.05 1470 2651.44 1470Z" stroke="black" stroke-width="10"/>
<g id="Group 1_28">
<path id="Vector 2_28" d="M2652.88 1488.49H2677.43" stroke="black" stroke-width="10"/>
<path id="Vector 4_28" d="M2673.78 1488.1L2669.6 1499.71L2667.66 1503.69C2666.69 1505.68 2665.56 1507.59 2664.27 1509.4V1509.4C2662.09 1512.48 2659.48 1515.23 2656.53 1517.59L2654.18 1519.46" stroke="black" stroke-width="10"/>
<path id="Vector 5_28" d="M2660.45 1495.84L2660.81 1497.03C2663.62 1506.26 2669.6 1514.21 2677.7 1519.46V1519.46" stroke="black" stroke-width="10"/>
<path id="Vector 3_28" d="M2664.63 1488.49V1481.52" stroke="black" stroke-width="10"/>
</g>
<g id="A_28">
<path id="Vector 6_28" d="M2589.13 1552.66L2600.57 1525.63C2601.62 1523.15 2605.17 1523.21 2606.13 1525.73L2616.45 1552.66" stroke="black" stroke-width="10"/>
<path id="Vector 7_28" d="M2595.05 1540.46H2610.76" stroke="black" stroke-width="10"/>
</g>
</g>
<g id="Black-L">
<path id="Vector 1_29" d="M2921.78 1505.91H2888.77H2883C2873.61 1505.91 2866 1513.52 2866 1522.91V1557.87C2866 1564.16 2871.1 1569.25 2877.38 1569.25H2882.51C2885.97 1569.25 2888.77 1572.06 2888.77 1575.51V1575.51C2888.77 1581.6 2896.57 1584.11 2900.12 1579.16L2904.6 1572.9C2906.24 1570.61 2908.88 1569.25 2911.7 1569.25H2935.22V1569.25C2935.97 1569.25 2936.58 1568.64 2936.58 1567.89V1550.28M2947.44 1470H2974C2983.39 1470 2991 1477.61 2991 1487V1525.48C2991 1530.57 2986.87 1534.7 2981.78 1534.7H2977.01C2974.55 1534.7 2972.56 1536.7 2972.56 1539.16V1539.16C2972.56 1543.69 2966.59 1545.33 2964.27 1541.44L2961.92 1537.5C2960.89 1535.76 2959.03 1534.7 2957.01 1534.7H2947.44C2938.05 1534.7 2930.44 1527.09 2930.44 1517.7V1487C2930.44 1477.61 2938.05 1470 2947.44 1470Z" stroke="black" stroke-width="11"/>
<g id="Group 1_29">
<path id="Vector 2_29" d="M2948.88 1488.49H2973.43" stroke="black" stroke-width="11"/>
<path id="Vector 4_29" d="M2969.78 1488.1L2965.6 1499.71L2963.66 1503.69C2962.69 1505.68 2961.56 1507.59 2960.27 1509.4V1509.4C2958.09 1512.48 2955.48 1515.23 2952.53 1517.59L2950.18 1519.46" stroke="black" stroke-width="11"/>
<path id="Vector 5_29" d="M2956.45 1495.84L2956.81 1497.03C2959.62 1506.26 2965.6 1514.21 2973.7 1519.46V1519.46" stroke="black" stroke-width="11"/>
<path id="Vector 3_29" d="M2960.63 1488.49V1481.52" stroke="black" stroke-width="11"/>
</g>
<g id="A_29">
<path id="Vector 6_29" d="M2885.13 1552.66L2896.57 1525.63C2897.62 1523.15 2901.17 1523.21 2902.13 1525.73L2912.45 1552.66" stroke="black" stroke-width="11"/>
<path id="Vector 7_29" d="M2891.05 1540.46H2906.76" stroke="black" stroke-width="11"/>
</g>
</g>
</g>
</g>
<rect x="0.5" y="0.5" width="3299" height="2199" stroke="black"/>
</g>
<defs>
<clipPath id="clip0_1_2">
<rect width="3300" height="2200" fill="white"/>
</clipPath>
</defs>
</svg>
